HIERARCHY
ROOT Hips
{
	OFFSET	0.00	0.00	0.00
	CHANNELS 6 Xposition Yposition Zposition Zrotation Xrotation Yrotation
	JOINT LeftUpLeg
	{
		OFFSET	 0.126116	-0.014019	-0.065224
		CHANNELS 3 Zrotation Xrotation Yrotation
		JOINT LeftLeg
		{
			OFFSET	 0.000000	 0.000000	 0.569914
			CHANNELS 3 Zrotation Xrotation Yrotation
			JOINT LeftFoot
			{
				OFFSET	 0.000000	 0.000000	 0.544423
				CHANNELS 3 Zrotation Xrotation Yrotation
				JOINT LeftToeBase
				{
					OFFSET	 0.000000	 0.000000	 0.207117
					CHANNELS 3 Zrotation Xrotation Yrotation
					End Site
					{
						OFFSET	 0.000000	 0.000000	 0.207117
					}
				}
			}
		}
	}
	JOINT RightUpLeg
	{
		OFFSET	-0.124023	-0.008373	-0.065224
		CHANNELS 3 Zrotation Xrotation Yrotation
		JOINT RightLeg
		{
			OFFSET	 0.000000	 0.000000	 0.570047
			CHANNELS 3 Zrotation Xrotation Yrotation
			JOINT RightFoot
			{
				OFFSET	 0.000000	 0.000000	 0.544354
				CHANNELS 3 Zrotation Xrotation Yrotation
				JOINT RightToeBase
				{
					OFFSET	 0.000000	 0.000000	 0.207540
					CHANNELS 3 Zrotation Xrotation Yrotation
					End Site
					{
						OFFSET	 0.000000	 0.000000	 0.207540
					}
				}
			}
		}
	}
	JOINT Spine
	{
		OFFSET	 0.000184	-0.007763	 0.117403
		CHANNELS 3 Zrotation Xrotation Yrotation
		JOINT Spine1
		{
			OFFSET	 0.000000	 0.000000	 0.137269
			CHANNELS 3 Zrotation Xrotation Yrotation
			JOINT Spine2
			{
				OFFSET	 0.000000	 0.000000	 0.156879
				CHANNELS 3 Zrotation Xrotation Yrotation
				JOINT LeftShoulder
				{
					OFFSET	 0.080501	-0.002496	 0.160144
					CHANNELS 3 Zrotation Xrotation Yrotation
					JOINT LeftArm
					{
						OFFSET	 0.000000	 0.000000	 0.164363
						CHANNELS 3 Zrotation Xrotation Yrotation
						JOINT LeftForeArm
						{
							OFFSET	 0.000000	 0.000000	 0.364576
							CHANNELS 3 Zrotation Xrotation Yrotation
							JOINT LeftHand
							{
								OFFSET	 0.000000	 0.000000	 0.360812
								CHANNELS 3 Zrotation Xrotation Yrotation
								JOINT LeftHandIndex1
								{
									OFFSET	 0.000000	 0.000000	 0.086006
									CHANNELS 3 Zrotation Xrotation Yrotation
									JOINT LeftHandIndex2
									{
										OFFSET	 0.000000	 0.000000	 0.047236
										CHANNELS 3 Zrotation Xrotation Yrotation
										JOINT LeftHandIndex3
										{
											OFFSET	-0.004284	-0.000551	 0.038166
											CHANNELS 3 Zrotation Xrotation Yrotation
											End Site
											{
												OFFSET	-0.004284	-0.000551	 0.038166
											}
										}
									}
								}
							}
						}
					}
				}
				JOINT Neck
				{
					OFFSET	 0.000000	 0.000000	 0.176489
					CHANNELS 3 Zrotation Xrotation Yrotation
					JOINT Head
					{
						OFFSET	 0.000000	-0.001747	 0.077940
						CHANNELS 3 Zrotation Xrotation Yrotation
						End Site
						{
							OFFSET	 0.000000	-0.001747	 0.077940
						}
					}
				}
				JOINT RightShoulder
				{
					OFFSET	-0.080363	 0.000306	 0.159706
					CHANNELS 3 Zrotation Xrotation Yrotation
					JOINT RightArm
					{
						OFFSET	 0.000000	 0.000000	 0.164196
						CHANNELS 3 Zrotation Xrotation Yrotation
						JOINT RightForeArm
						{
							OFFSET	 0.000000	 0.000000	 0.365611
							CHANNELS 3 Zrotation Xrotation Yrotation
							JOINT RightHand
							{
								OFFSET	 0.000000	 0.000000	 0.360648
								CHANNELS 3 Zrotation Xrotation Yrotation
								JOINT RightHandIndex1
								{
									OFFSET	 0.000000	 0.000000	 0.069977
									CHANNELS 3 Zrotation Xrotation Yrotation
									JOINT RightHandIndex2
									{
										OFFSET	 0.000000	 0.000000	 0.052305
										CHANNELS 3 Zrotation Xrotation Yrotation
										JOINT RightHandIndex3
										{
											OFFSET	 0.009002	-0.000782	 0.042196
											CHANNELS 3 Zrotation Xrotation Yrotation
											End Site
											{
												OFFSET	 0.009002	-0.000782	 0.042196
											}
										}
									}
								}
							}
						}
					}
				}
			}
		}
	}
}
MOTION
Frames:    12
Frame Time: 0.03333334
-1.117443	-8.861030	 0.688680	-17.820840	 8.231596	 1.720121	 4.537082	-21.977870	 173.979600	-1.633349	-40.749510	-0.216340	 0.048660	 84.997120	-0.532348	-2.385773	 28.465030	-0.000265	-2.511776	-22.836010	-178.747400	-0.115265	-41.714680	 0.009448	-0.222110	 85.958340	 0.474035	 2.407680	 17.348350	-0.225266	-7.977251	 8.970838	 0.155485	-12.647840	 6.911685	-1.976162	-14.823620	 4.029153	-0.462429	-119.252300	 89.479230	-150.029800	 60.295570	 60.917910	-82.713080	-4.504745	-4.525954	-21.294620	 6.756130	-2.200471	-5.335017	-3.812334	 37.924440	-2.927599	-2.450526	 36.184240	 0.754587	-1.378229	 35.397820	-2.634230	 0.462596	 2.881818	-0.642846	-3.227067	 6.907514	 0.584341	 94.564180	 86.871440	 171.790500	-58.464650	 72.000180	 75.750630	-3.289452	-14.000220	 26.323260	-25.541960	-3.187113	 9.583715	 6.437017	 35.671460	-0.771858	 2.830251	 35.756010	-7.813440	-2.350882	 35.473990	 5.254307
-1.115940	-8.858495	 0.692912	-17.848160	 8.050508	 1.756288	 4.530636	-22.197430	 174.153500	-1.687302	-40.310730	-0.225540	 0.163787	 84.731510	-0.665942	-2.385718	 28.478020	-0.000546	-2.464024	-23.085070	-178.762700	-0.106124	-41.130910	 0.024690	-0.330478	 85.641400	 0.604031	 2.407687	 17.553200	-0.221265	-7.985847	 9.028249	 0.099365	-12.644510	 6.882011	-1.952445	-14.815360	 4.111363	-0.451464	-115.675500	 89.395740	-153.540500	 55.978080	 59.636710	-78.075300	-3.649567	-4.317167	-21.016320	 6.311660	-2.196517	-5.338228	-3.812334	 37.924440	-2.927599	-2.450526	 36.184240	 0.754587	-1.378229	 35.397820	-2.634230	 0.453782	 2.599168	-0.615021	-3.245554	 6.740996	 0.558217	 94.718660	 86.900920	 171.570900	-53.441110	 70.036330	 71.788150	-3.210416	-12.969120	 25.944230	-23.929740	-3.186950	 9.584530	 6.437017	 35.671460	-0.771858	 2.830251	 35.756010	-7.813440	-2.350882	 35.473990	 5.254307
-1.114958	-8.857447	 0.691105	-17.880460	 8.036540	 1.821792	 4.504361	-22.638030	 174.082200	-1.762104	-40.991370	-0.305075	 0.131667	 84.945370	-0.709902	-2.385329	 28.565460	-0.002434	-2.433717	-23.436590	-178.761500	-0.072230	-41.682820	 0.079460	-0.584994	 85.821210	 0.919987	 2.407654	 17.868680	-0.215095	-7.976009	 9.376519	 0.070514	-12.584870	 7.166154	-1.956822	-14.769000	 4.424079	-0.409427	-115.321100	 89.379140	-153.856700	 55.593880	 58.781270	-77.719880	-3.672030	-4.084794	-21.595030	 5.466822	-2.189395	-5.344196	-3.812334	 37.924440	-2.927599	-2.450526	 36.184240	 0.754587	-1.378229	 35.397820	-2.634230	 0.436149	 2.422677	-0.578191	-3.236403	 6.843288	 0.469212	 94.729030	 86.887370	 171.532700	-53.181950	 69.397830	 71.870010	-3.250845	-12.975640	 26.408130	-23.572250	-3.185603	 9.586594	 6.437017	 35.671460	-0.771858	 2.830251	 35.756010	-7.813440	-2.350882	 35.473990	 5.254307
-1.113540	-8.855823	 0.688715	-17.951880	 8.052009	 1.838754	 4.549702	-23.242060	 174.040300	-1.827235	-41.813640	-0.335783	 0.337137	 85.187410	-0.933799	-2.385095	 28.616450	-0.003536	-2.414353	-23.917600	-178.704000	-0.053173	-42.402540	 0.125583	-0.868783	 86.020890	 1.248530	 2.407604	 18.147440	-0.209636	-7.940963	 9.768256	 0.084320	-12.467290	 7.422781	-1.946694	-14.669890	 4.708581	-0.369937	-114.662000	 89.347480	-154.447600	 54.994550	 57.976300	-77.346790	-3.492408	-4.003157	-22.309860	 5.008174	-2.175036	-5.349613	-3.812334	 37.924440	-2.927599	-2.450526	 36.184240	 0.754587	-1.378229	 35.397820	-2.634230	 0.412447	 2.180127	-0.563790	-3.231820	 6.967700	 0.446904	 94.756300	 86.874690	 171.466300	-52.689060	 68.663620	 71.790400	-3.301947	-13.063810	 27.074690	-23.224720	-3.190668	 9.581435	 6.437017	 35.671460	-0.771858	 2.830251	 35.756010	-7.813440	-2.350882	 35.473990	 5.254307
-1.111618	-8.853100	 0.685120	-18.060100	 8.120203	 1.856610	 4.664433	-24.030750	 174.009600	-1.932022	-42.989610	-0.358020	 0.598501	 85.521190	-1.193980	-2.384817	 28.678430	-0.004884	-2.391004	-24.736080	-178.627000	-0.075524	-43.489270	 0.155928	-1.249694	 86.292390	 1.647446	 2.407474	 18.561040	-0.201523	-7.900312	 10.297260	 0.107447	-12.270880	 7.675630	-1.940031	-14.472950	 4.995187	-0.328417	-113.686100	 89.299740	-155.332200	 54.022010	 57.223510	-76.955160	-3.055090	-4.178033	-23.389800	 5.103683	-2.154362	-5.354018	-3.812334	 37.924440	-2.927599	-2.450526	 36.184240	 0.754587	-1.378229	 35.397820	-2.634230	 0.383763	 1.854237	-0.544616	-3.202976	 7.086019	 0.488503	 94.801390	 86.848050	 171.347500	-51.921820	 67.724750	 71.733350	-3.292369	-13.245130	 28.060430	-22.833910	-3.191657	 9.581166	 6.437017	 35.671460	-0.771858	 2.830251	 35.756010	-7.813440	-2.350882	 35.473990	 5.254307
-1.109597	-8.849708	 0.681234	-18.173640	 8.236597	 1.838936	 4.748331	-24.932500	 173.994600	-2.031359	-44.218160	-0.392841	 0.850764	 85.864550	-1.456250	-2.384325	 28.787800	-0.007256	-2.357991	-25.739440	-178.547400	-0.120223	-44.665070	 0.176952	-1.640265	 86.569950	 2.042151	 2.407212	 19.096190	-0.190986	-7.876527	 10.811750	 0.158391	-12.044210	 7.841589	-1.930509	-14.210570	 5.193096	-0.297645	-112.880300	 89.253490	-156.045500	 53.035290	 56.590540	-76.706730	-3.152332	-4.222867	-24.653230	 4.834358	-2.136554	-5.358834	-3.812334	 37.924440	-2.927599	-2.450526	 36.184240	 0.754587	-1.378229	 35.397820	-2.634230	 0.377389	 1.514745	-0.550989	-3.138776	 7.145635	 0.579516	 94.843640	 86.805310	 171.207000	-51.161310	 66.873310	 71.893650	-3.160688	-13.450670	 29.052840	-22.511460	-3.187521	 9.586449	 6.437017	 35.671460	-0.771858	 2.830251	 35.756010	-7.813440	-2.350882	 35.473990	 5.254307
-1.106735	-8.844507	 0.675976	-18.337360	 8.488437	 1.735389	 4.774580	-26.301060	 174.062300	-2.242279	-45.901280	-0.543264	 0.914443	 86.334140	-1.626944	-2.383538	 28.956970	-0.010930	-2.250850	-27.180920	-178.471200	-0.150490	-46.313510	 0.263551	-1.865206	 86.948980	 2.320492	 2.406663	 19.845210	-0.176173	-7.843549	 11.512100	 0.277827	-11.699940	 7.955450	-1.899633	-13.791860	 5.336279	-0.271406	-112.249500	 89.195210	-156.526400	 51.743100	 55.907530	-76.423550	-3.545723	-4.235567	-26.490840	 4.376138	-2.116937	-5.364010	-3.812334	 37.924440	-2.927599	-2.450526	 36.184240	 0.754587	-1.378229	 35.397820	-2.634230	 0.400258	 1.005937	-0.583108	-3.015113	 7.157922	 0.745631	 94.885760	 86.724100	 171.001800	-50.078410	 65.927860	 72.167950	-2.804070	-13.715600	 30.318610	-22.143430	-3.192575	 9.581542	 6.437017	 35.671460	-0.771858	 2.830251	 35.756010	-7.813440	-2.350882	 35.473990	 5.254307
-1.103184	-8.837412	 0.669355	-18.563460	 8.824221	 1.672289	 4.806549	-28.133620	 174.081700	-2.548570	-48.051220	-0.772283	 1.091099	 86.935990	-1.957414	-2.382414	 29.196250	-0.016145	-2.134943	-29.026940	-178.397900	-0.101350	-48.454030	 0.425964	-2.292293	 87.435170	 2.854048	 2.405891	 20.608580	-0.160996	-7.769171	 12.470030	 0.392420	-11.204430	 7.979140	-1.905789	-13.210770	 5.352710	-0.257955	-112.018600	 89.131140	-156.537400	 50.207290	 55.231250	-76.105550	-3.972700	-4.314361	-28.713420	 4.035553	-2.099445	-5.367981	-3.812334	 37.924440	-2.927599	-2.450526	 36.184240	 0.754587	-1.378229	 35.397820	-2.634230	 0.460629	 0.345558	-0.654833	-2.842998	 7.015805	 1.014325	 94.892750	 86.589930	 170.765800	-48.631990	 64.891700	 72.332380	-2.312028	-14.001320	 31.782660	-21.730340	-3.191545	 9.583344	 6.437017	 35.671460	-0.771858	 2.830251	 35.756010	-7.813440	-2.350882	 35.473990	 5.254307
-1.099805	-8.829257	 0.662023	-18.816220	 9.170919	 1.717556	 4.783768	-30.210310	 173.899400	-2.824602	-50.448420	-1.028974	 1.989924	 87.616070	-3.010256	-2.381077	 29.471520	-0.022172	-2.085531	-31.062640	-178.362800	 0.034029	-50.848020	 0.619874	-3.658953	 87.980450	 4.339962	 2.404874	 21.388840	-0.145400	-7.660176	 13.550680	 0.473762	-10.614680	 7.963674	-1.979261	-12.543920	 5.254109	-0.255706	-112.164400	 89.077830	-156.153900	 48.600530	 54.717130	-75.746360	-4.642102	-4.317217	-30.886790	 3.615783	-2.104838	-5.367484	-3.812334	 37.924440	-2.927599	-2.450526	 36.184240	 0.754587	-1.378229	 35.397820	-2.634230	 0.535536	-0.304660	-0.752157	-2.642248	 6.670801	 1.283259	 94.821920	 86.425770	 170.613400	-46.958700	 63.864720	 72.202620	-1.803767	-14.246850	 33.241950	-21.302770	-3.184763	 9.591205	 6.437017	 35.671460	-0.771858	 2.830251	 35.756010	-7.813440	-2.350882	 35.473990	 5.254307
-1.096087	-8.819886	 0.653509	-19.077390	 9.606301	 1.793650	 4.704105	-32.651220	 173.674000	-3.286866	-53.236950	-1.481185	 4.024598	 88.392460	-5.306171	-2.379752	 29.737480	-0.028014	-2.023190	-33.561470	-178.342900	 0.142410	-53.539680	 0.811350	-6.531770	 88.620730	 7.305356	 2.403568	 22.203280	-0.129007	-7.540677	 14.688080	 0.530451	-9.926365	 7.914027	-2.082334	-11.756950	 5.060940	-0.259509	-112.554400	 89.034700	-155.523300	 47.000060	 54.416920	-75.251820	-5.700007	-4.119030	-32.983960	 2.904186	-2.115452	-5.366796	-3.812334	 37.924440	-2.927599	-2.450526	 36.184240	 0.754587	-1.378229	 35.397820	-2.634230	 0.632687	-0.991619	-0.870748	-2.393185	 6.195635	 1.580362	 94.710740	 86.245480	 170.506700	-45.015360	 62.853570	 71.691090	-1.273142	-14.436880	 34.676080	-20.850120	-3.198337	 9.578536	 6.437017	 35.671460	-0.771858	 2.830251	 35.756010	-7.813440	-2.350882	 35.473990	 5.254307
-1.092015	-8.809711	 0.643668	-19.345400	 10.232320	 1.888485	 4.494568	-35.535300	 173.381600	-4.000121	-56.364910	-2.242069	 8.667178	 89.240750	-10.331550	-2.378441	 29.994240	-0.033681	-1.974362	-36.500470	-178.356200	 0.283964	-56.499640	 1.029755	-13.975220	 89.374430	 14.825020	 2.402211	 22.910910	-0.114666	-7.415506	 15.796290	 0.526142	-9.150924	 7.797205	-2.190996	-10.857880	 4.804622	-0.263976	-113.104800	 89.001030	-154.736800	 45.609340	 54.461670	-74.659150	-7.005419	-3.794718	-34.860470	 2.086803	-2.101310	-5.369902	-3.812334	 37.924440	-2.927599	-2.450526	 36.184240	 0.754587	-1.378229	 35.397820	-2.634230	 0.750039	-1.755958	-1.040594	-2.115835	 5.737491	 2.004060	 94.577160	 86.059750	 170.434200	-43.315300	 62.324700	 71.050210	-0.630590	-14.591400	 35.812550	-20.535990	-3.193071	 9.584231	 6.437017	 35.671460	-0.771858	 2.830251	 35.756010	-7.813440	-2.350882	 35.473990	 5.254307
-1.087761	-8.799542	 0.632540	-19.706800	 11.006110	 1.980688	 4.286493	-38.621890	 173.083600	-4.877577	-59.629930	-3.163609	 136.614900	 89.816540	-138.646400	-2.376649	 30.335110	-0.041227	-1.895510	-39.670900	-178.290000	 0.454086	-59.646510	 1.297884	-143.477800	 89.748990	 144.407900	 2.400797	 23.560260	-0.101425	-7.242152	 16.832410	 0.552303	-8.263608	 7.695377	-2.277810	-9.869720	 4.553939	-0.261528	-113.796100	 88.975120	-153.810900	 44.493050	 54.763640	-73.757320	-8.220658	-3.433645	-36.335610	 1.328350	-2.120234	-5.368892	-3.812334	 37.924440	-2.927599	-2.450526	 36.184240	 0.754587	-1.378229	 35.397820	-2.634230	 0.872823	-2.432092	-1.232091	-1.839488	 5.245363	 2.399663	 94.421810	 85.883380	 170.427000	-41.911000	 62.347480	 70.088960	 0.110031	-14.670940	 36.588120	-20.309530	-3.189442	 9.588085	 6.437017	 35.671460	-0.771858	 2.830251	 35.756010	-7.813440	-2.350882	 35.473990	 5.254307
